<?xml version="1.0" encoding="utf-8"?>
<svg version="1.1" xmlns="http://www.w3.org/2000/svg" x="0px" y="0px" viewBox="0 0 1000 1000"
    enable-background="new 0 0 1000 1000" xml:space="preserve">
    <path
        d="M500,10C229.4,10,10,229.4,10,500c0,270.6,219.4,490,490,490c270.6,0,490-219.4,490-490C990,229.4,770.6,10,500,10z M500,923.7C266,923.7,76.4,734,76.4,500C76.4,266,266.1,76.4,500,76.4c234,0,423.6,189.7,423.6,423.6C923.6,734,734,923.7,500,923.7z"
        fill="#F70900" />
    <path
        d="M451.5,770.2c-13.1-13.1-19.7-29.3-19.7-48.5c0-18.6,6.7-34.5,20.2-47.6c13.4-13.1,29.5-19.7,48.1-19.7s34.6,6.6,48.1,19.7c13.4,13.1,20.1,29,20.1,47.6c0,19.2-6.6,35.3-19.7,48.5c-13.1,13.2-29.3,19.7-48.5,19.7C480.9,789.9,464.7,783.3,451.5,770.2z M444.1,559c0,16.5,5.1,29.9,15.2,40.4c10.1,10.4,23.4,15.6,39.8,15.6c16.5,0,29.9-5.2,40.2-15.6C549.8,589,555,575.5,555,559V265.2c0-16.5-5.2-29.7-15.6-39.9c-10.4-10.1-23.8-15.2-40.2-15.2c-15.9,0-29,5.2-39.4,15.6c-10.4,10.4-15.6,23.6-15.6,39.5V559z"
        fill="#F70900" />
</svg>